<?xml version="1.0" standalone="no"?>
<!DOCTYPE svg PUBLIC "-//W3C//DTD SVG 20010904//EN"
 "http://www.w3.org/TR/2001/REC-SVG-20010904/DTD/svg10.dtd">
<svg version="1.0" xmlns="http://www.w3.org/2000/svg"
 width="275.000000pt" height="275.000000pt" viewBox="0 0 275.000000 275.000000"
 preserveAspectRatio="xMidYMid meet">
<metadata>
Created by potrace 1.14, written by Peter Selinger 2001-2017
</metadata>
<g transform="translate(0.000000,275.000000) scale(0.100000,-0.100000)"
fill="#000000" stroke="none">
<path d="M1393 2248 c-32 -15 -37 -38 -38 -168 -2 -133 5 -164 45 -180 60 -25
116 10 120 75 3 47 2 51 -24 53 -22 1 -25 -3 -28 -41 -3 -37 -6 -42 -28 -42
l-25 0 -3 120 c-2 130 3 151 37 140 16 -5 21 -14 21 -41 0 -29 3 -33 23 -30
30 4 36 63 10 95 -21 25 -78 36 -110 19z"/>
<path d="M1616 2157 c-14 -45 -38 -123 -54 -174 l-29 -92 25 -6 c13 -3 25 -5
27 -3 1 2 12 33 24 71 23 68 36 79 70 58 12 -8 12 -17 -1 -63 -9 -29 -19 -61
-23 -70 -5 -13 -1 -20 16 -27 13 -5 27 -6 31 -2 5 5 55 159 63 195 1 6 5 18 8
26 3 8 12 36 20 61 14 43 14 46 -5 58 -26 16 -31 10 -57 -71 l-22 -67 -30 11
c-32 11 -32 18 -2 102 17 50 17 51 -12 64 -24 11 -24 10 -49 -71z"/>
<path d="M1155 2213 c-27 -8 -51 -16 -52 -17 -2 -1 19 -79 46 -172 54 -188 41
-175 139 -147 45 12 53 18 50 36 -3 23 -8 23 -74 11 -31 -6 -32 -5 -42 42 -11
51 -5 64 30 64 22 0 28 11 22 38 -5 17 -10 19 -31 11 -41 -15 -52 -11 -62 29
-16 56 -15 59 33 71 37 9 43 14 39 31 -6 24 -28 25 -98 3z"/>
<path d="M934 2114 c-59 -37 -71 -49 -67 -65 4 -16 11 -19 27 -14 41 12 48 10
69 -27 73 -124 129 -208 140 -208 22 0 40 17 32 31 -20 35 -120 197 -136 221
-19 27 -19 27 8 48 17 13 23 24 17 28 -6 4 -13 12 -15 19 -3 7 -30 -5 -75 -33z"/>
<path d="M1780 1885 c-5 -14 -16 -38 -25 -55 l-15 -29 69 -46 c172 -114 270
-285 276 -485 6 -177 -44 -314 -157 -432 -123 -129 -268 -193 -438 -196 -214
-3 -405 100 -522 281 -16 26 -33 47 -37 46 -14 -1 -103 -55 -104 -63 0 -17 84
-134 130 -181 53 -53 170 -134 224 -154 19 -7 43 -17 54 -22 83 -35 230 -50
345 -35 311 40 574 289 630 597 16 87 14 212 -4 292 -33 140 -113 285 -204
368 -62 57 -101 89 -107 89 -3 0 -23 11 -45 25 -49 31 -58 31 -70 0z"/>
<path d="M789 1874 c-11 -13 -7 -20 22 -45 19 -16 37 -29 42 -29 11 0 8 -14
-7 -35 -13 -18 -15 -17 -57 19 -39 33 -45 35 -56 20 -10 -14 2 -28 90 -100 89
-73 104 -81 114 -67 10 13 5 21 -30 51 -23 19 -41 36 -40 39 21 38 19 38 69 0
43 -33 49 -36 57 -21 10 18 9 19 -79 94 -93 80 -111 91 -125 74z"/>
<path d="M1459 1754 c-18 -13 -38 -24 -45 -24 -27 0 -23 -21 12 -74 l36 -55
-48 -141 c-27 -77 -54 -140 -60 -140 -5 0 -19 8 -30 18 -10 9 -48 39 -82 65
-60 44 -67 47 -127 47 -48 0 -64 -4 -69 -16 -9 -24 -20 -124 -13 -124 3 0 22
9 41 21 l35 20 15 -25 c56 -92 55 -86 21 -86 -27 0 -34 -15 -10 -24 8 -3 15
-10 15 -16 0 -5 -7 -10 -15 -10 -8 0 -15 -3 -14 -7 0 -10 222 -185 249 -197
28 -13 36 -62 13 -88 -13 -15 -15 -22 -5 -25 6 -3 12 -10 12 -16 0 -8 28 -12
90 -13 50 -1 90 2 90 5 0 4 -13 15 -30 24 -16 10 -31 27 -32 38 -6 73 -5 78
20 84 31 8 172 150 172 173 0 34 -58 219 -94 302 -41 93 -43 87 24 131 l24 16
-31 18 c-27 16 -31 23 -26 47 13 66 11 73 -25 70 -18 -2 -44 3 -56 12 -22 14
-26 13 -57 -10z"/>
<path d="M682 1709 c-26 -10 -45 -53 -36 -81 6 -20 171 -108 203 -108 25 0 51
36 51 72 0 21 -8 33 -32 48 -29 18 -33 18 -41 4 -7 -12 -2 -22 17 -38 19 -15
23 -25 16 -36 -8 -13 -22 -8 -95 27 -87 44 -91 48 -76 72 6 10 13 11 29 2 27
-15 29 -14 35 8 6 24 -37 42 -71 30z"/>
<path d="M597 1536 c-5 -11 12 -19 69 -32 41 -9 74 -18 72 -20 -2 -1 -38 -4
-80 -5 -63 -2 -77 -5 -81 -19 -2 -10 -2 -22 2 -27 3 -6 59 -23 125 -38 97 -23
120 -25 126 -14 5 7 7 15 6 17 -2 1 -38 11 -80 21 -42 10 -80 21 -83 25 -6 5
104 10 153 7 15 -2 23 5 27 21 4 12 5 23 4 23 -3 2 -202 45 -231 51 -15 2 -26
-1 -29 -10z"/>
<path d="M562 1305 c1 -52 3 -55 27 -55 14 -1 74 -3 134 -5 l107 -4 0 58 c0
49 -3 57 -20 58 -11 1 -19 -1 -19 -5 1 -4 1 -22 0 -40 -1 -31 -2 -32 -38 -30
-33 3 -38 7 -41 31 -4 35 -40 39 -38 5 2 -29 -7 -36 -44 -30 -24 3 -30 9 -31
31 -1 14 -1 29 0 34 0 4 -8 7 -18 7 -17 0 -19 -7 -19 -55z"/>
<path d="M757 1218 c-21 -6 -41 -16 -44 -24 -4 -10 -10 -11 -23 -4 -11 6 -34
7 -57 2 -49 -10 -64 -38 -50 -93 11 -45 -5 -44 170 -9 96 19 102 22 94 43 -4
12 -15 13 -49 6 -61 -12 -68 -11 -68 6 0 18 24 31 72 40 29 5 35 10 31 26 -6
21 -19 22 -76 7z m-65 -71 c14 -22 5 -29 -59 -43 -18 -3 -26 29 -10 41 21 15
60 16 69 2z"/>
<path d="M730 1029 c0 -6 4 -19 10 -29 8 -15 4 -20 -28 -33 -33 -14 -38 -14
-47 0 -30 45 -34 48 -45 37 -9 -9 -6 -23 12 -57 l23 -45 60 24 c33 14 74 31
90 39 17 8 43 18 58 24 25 10 35 30 21 44 -3 3 -26 -3 -51 -14 -56 -24 -59
-24 -66 1 -5 21 -37 29 -37 9z"/>
</g>
</svg>
